<svg width="32" height="32" viewBox="0 0 32 32" fill="none" xmlns="http://www.w3.org/2000/svg">
<rect width="32" height="32" rx="8" fill="#26282e"/>
<rect x="0.5" y="0.5" width="31" height="31" rx="7.5" stroke="#32F08C" stroke-opacity="0.2"/>
<path d="M16 6l1.5 3.5L21 11l-3.5 1.5L16 16l-1.5-3.5L11 11l3.5-1.5L16 6z" fill="#32F08C"/>
<path d="M21 18l1 2.5 2.5 1-2.5 1-1 2.5-1-2.5-2.5-1 2.5-1 1-2.5z" fill="#32F08C" opacity="0.6"/>
<path d="M10 19l.8 1.8 1.7.7-1.7.7-.8 1.8-.8-1.8-1.7-.7 1.7-.7.8-1.8z" fill="#32F08C" opacity="0.4"/>
</svg>
